<svg width="120" height="40" viewBox="0 0 120 40" fill="none" xmlns="http://www.w3.org/2000/svg">
<g opacity="0.9" clip-path="url(#clip0_1_136)">
<path d="M110.444 0.00013H9.56145C9.19372 0.00013 8.8304 0.00013 8.46364 0.00212999C8.15663 0.00412999 7.85207 0.00993997 7.54211 0.01483C6.86874 0.0227317 6.19695 0.081806 5.53259 0.191539C4.86915 0.303662 4.2265 0.515044 3.62637 0.818537C3.02697 1.1246 2.47929 1.52229 2.00318 1.99719C1.52457 2.47076 1.12561 3.01814 0.82165 3.61828C0.516847 4.21723 0.305496 4.85905 0.194896 5.52159C0.083244 6.1833 0.0231632 6.85263 0.0151925 7.52359C0.00588648 7.83018 0.00490373 8.1378 0 8.44444V31.5586C0.00490373 31.8691 0.00588648 32.1699 0.0151925 32.4805C0.0231657 33.1514 0.0832464 33.8207 0.194896 34.4824C0.30519 35.1453 0.516554 35.7875 0.82165 36.3867C1.12548 36.9849 1.52449 37.5301 2.00318 38.001C2.47748 38.478 3.02552 38.876 3.62637 39.1797C4.2265 39.484 4.86908 39.6967 5.53259 39.8105C6.19707 39.9194 6.86879 39.9785 7.54211 39.9873C7.85207 39.9941 8.15663 39.998 8.46364 39.998C8.83039 40 9.19374 40 9.56145 40H110.444C110.804 40 111.171 40 111.531 39.998C111.837 39.998 112.15 39.9941 112.455 39.9873C113.128 39.9789 113.798 39.9198 114.461 39.8105C115.127 39.6959 115.772 39.4833 116.375 39.1797C116.975 38.8758 117.522 38.4779 117.996 38.001C118.474 37.5282 118.874 36.9835 119.181 36.3867C119.484 35.7871 119.693 35.145 119.802 34.4824C119.914 33.8207 119.976 33.1515 119.988 32.4805C119.992 32.1699 119.992 31.8691 119.992 31.5586C120 31.1953 120 30.834 120 30.4648V9.53623C120 9.17002 120 8.80674 119.992 8.44444C119.992 8.1378 119.992 7.83018 119.988 7.52355C119.976 6.85253 119.914 6.18335 119.802 5.52155C119.693 4.8594 119.484 4.21762 119.181 3.61824C118.562 2.41532 117.581 1.43615 116.375 0.818447C115.772 0.515696 115.127 0.304369 114.461 0.191449C113.798 0.0812325 113.128 0.0221377 112.455 0.01469C112.15 0.00980997 111.837 0.00394999 111.531 0.00199999C111.171 0 110.804 0 110.444 0V0.00013Z" fill="white"/>
<path d="M8.34313 39.248C8.0376 39.248 7.73944 39.2441 7.4363 39.2373C6.80832 39.2291 6.1818 39.1746 5.5619 39.0742C4.98386 38.9749 4.42391 38.7903 3.90049 38.5263C3.38188 38.2646 2.90886 37.9213 2.49956 37.5098C2.08434 37.1031 1.73864 36.6314 1.47618 36.1134C1.21082 35.592 1.02718 35.0331 0.93165 34.4563C0.828485 33.8364 0.772668 33.2096 0.764681 32.5814C0.758323 32.3705 0.75 31.6683 0.75 31.6683V8.56894C0.75 8.56894 0.758865 7.87757 0.764731 7.67445C0.772379 7.04717 0.827871 6.42137 0.930727 5.80248C1.02643 5.22403 1.21022 4.66356 1.47572 4.14047C1.73722 3.62281 2.08099 3.15075 2.49371 2.74259C2.90597 2.33055 3.38051 1.98555 3.9 1.72017C4.42221 1.45707 4.98111 1.27372 5.55798 1.17626C6.17992 1.07483 6.80861 1.02 7.43877 1.01221L8.34363 1H111.401L112.317 1.0127C112.942 1.0201 113.565 1.07445 114.181 1.17528C114.763 1.27396 115.328 1.45859 115.856 1.7231C116.897 2.25792 117.744 3.10405 118.278 4.14291C118.539 4.66239 118.72 5.21829 118.815 5.79174C118.919 6.41571 118.977 7.04642 118.989 7.67885C118.992 7.96204 118.992 8.26622 118.992 8.56894C119 8.94393 119 9.30084 119 9.66068V30.5883C119 30.9515 119 31.306 118.992 31.6634C118.992 31.9886 118.992 32.2865 118.988 32.5931C118.976 33.2142 118.919 33.8337 118.817 34.4465C118.723 35.0275 118.541 35.5907 118.275 36.1164C118.011 36.6288 117.667 37.0964 117.257 37.502C116.847 37.9158 116.373 38.261 115.853 38.5244C115.327 38.7904 114.763 38.9758 114.181 39.0742C113.561 39.1752 112.934 39.2297 112.306 39.2373C112.013 39.2441 111.705 39.248 111.406 39.248L110.319 39.25L8.34313 39.248Z" fill="white"/>
<path d="M24.997 19.8897C25.0082 19.0217 25.2388 18.1707 25.6672 17.4158C26.0957 16.6609 26.7082 16.0266 27.4476 15.572C26.9779 14.9011 26.3581 14.349 25.6377 13.9595C24.9172 13.57 24.1158 13.3538 23.2972 13.3282C21.551 13.1449 19.8581 14.3731 18.9682 14.3731C18.0612 14.3731 16.6911 13.3464 15.2158 13.3768C14.2615 13.4076 13.3314 13.6851 12.5163 14.1822C11.7011 14.6794 11.0287 15.3792 10.5644 16.2135C8.55327 19.6955 10.0534 24.8129 11.9799 27.6275C12.9438 29.0057 14.0703 30.5452 15.5443 30.4906C16.9867 30.4308 17.5254 29.5709 19.2665 29.5709C20.9914 29.5709 21.4968 30.4906 23.0007 30.4559C24.5485 30.4308 25.5237 29.0716 26.4537 27.6803C27.1463 26.6982 27.6792 25.6129 28.0327 24.4644C27.1335 24.0841 26.3662 23.4475 25.8263 22.634C25.2865 21.8204 24.9981 20.866 24.997 19.8897Z" fill="black"/>
<path d="M22.1573 11.4766C23.0012 10.4635 23.417 9.16135 23.3163 7.84668C22.027 7.98209 20.8361 8.59829 19.9808 9.5725C19.5626 10.0484 19.2423 10.6021 19.0382 11.2019C18.8341 11.8017 18.7503 12.4358 18.7914 13.068C19.4363 13.0746 20.0743 12.9349 20.6573 12.6592C21.2403 12.3835 21.7532 11.9792 22.1573 11.4766Z" fill="black"/>
<path d="M42.3027 27.1397H37.5693L36.4326 30.4961H34.4277L38.9111 18.0781H40.9941L45.4775 30.4961H43.4385L42.3027 27.1397ZM38.0596 25.5908H41.8116L39.962 20.1436H39.9102L38.0596 25.5908Z" fill="black"/>
<path d="M55.1592 25.9704C55.1592 28.7839 53.6533 30.5915 51.3809 30.5915C50.8052 30.6216 50.2327 30.489 49.7289 30.2089C49.2251 29.9288 48.8104 29.5124 48.5323 29.0075H48.4893V33.4919H46.6309V21.4431H48.4297V22.9489H48.4639C48.7548 22.4465 49.1766 22.0323 49.6842 21.7504C50.1918 21.4686 50.7664 21.3296 51.3467 21.3483C53.6446 21.3484 55.1592 23.1648 55.1592 25.9704ZM53.249 25.9704C53.249 24.1374 52.3018 22.9323 50.8565 22.9323C49.4365 22.9323 48.4815 24.1628 48.4815 25.9704C48.4815 27.7946 49.4365 29.0163 50.8565 29.0163C52.3018 29.0163 53.249 27.82 53.249 25.9704H53.249Z" fill="black"/>
<path d="M65.1245 25.9704C65.1245 28.7839 63.6182 30.5915 61.3457 30.5915C60.7701 30.6216 60.1976 30.489 59.6938 30.2089C59.19 29.9288 58.7753 29.5124 58.4971 29.0075H58.4541V33.4919H56.5957V21.4431H58.3945V22.9489H58.4287C58.7197 22.4465 59.1414 22.0323 59.649 21.7504C60.1567 21.4686 60.7312 21.3296 61.3115 21.3483C63.6094 21.3484 65.1245 23.1648 65.1245 25.9704ZM63.2139 25.9704C63.2139 24.1374 62.2666 22.9323 60.8213 22.9323C59.4014 22.9323 58.4463 24.1628 58.4463 25.9704C58.4463 27.7946 59.4014 29.0163 60.8213 29.0163C62.2666 29.0163 63.2139 27.82 63.2139 25.9704Z" fill="black"/>
<path d="M71.711 27.0362C71.8487 28.2676 73.045 29.0762 74.6797 29.0762C76.2461 29.0762 77.3731 28.2676 77.3731 27.1572C77.3731 26.1934 76.6934 25.6162 75.084 25.2207L73.4747 24.833C71.1944 24.2822 70.1358 23.2158 70.1358 21.4854C70.1358 19.3428 72.003 17.8711 74.6534 17.8711C77.2784 17.8711 79.0772 19.3428 79.1378 21.4854H77.2618C77.1495 20.2461 76.125 19.4981 74.628 19.4981C73.1309 19.4981 72.1065 20.2549 72.1065 21.3565C72.1065 22.2344 72.7608 22.751 74.3614 23.1465L75.7295 23.4824C78.2774 24.0849 79.335 25.1084 79.335 26.9248C79.335 29.248 77.4854 30.7031 74.542 30.7031C71.7881 30.7031 69.9287 29.2822 69.8086 27.0361L71.711 27.0362Z" fill="black"/>
<path d="M83.3476 19.2998V21.4424H85.0693V22.9141H83.3476V27.9053C83.3476 28.6807 83.6924 29.042 84.4492 29.042C84.6536 29.0384 84.8577 29.0241 85.0605 28.999V30.4619C84.7203 30.5255 84.3744 30.5543 84.0283 30.5478C82.1953 30.5478 81.4805 29.8593 81.4805 28.1035V22.9141H80.1641V21.4424H81.4804V19.2998H83.3476Z" fill="black"/>
<path d="M86.0645 25.9697C86.0645 23.1211 87.7422 21.3311 90.3584 21.3311C92.9834 21.3311 94.6533 23.1211 94.6533 25.9697C94.6533 28.8262 92.9922 30.6084 90.3584 30.6084C87.7256 30.6084 86.0645 28.8262 86.0645 25.9697ZM92.7598 25.9697C92.7598 24.0156 91.8643 22.8623 90.3584 22.8623C88.8525 22.8623 87.957 24.0244 87.957 25.9697C87.957 27.9316 88.8525 29.0762 90.3584 29.0762C91.8643 29.0762 92.7598 27.9316 92.7598 25.9697H92.7598Z" fill="black"/>
<path d="M96.1856 21.443H97.958V22.984H98.001C98.1209 22.5027 98.4029 22.0774 98.7995 21.7795C99.1961 21.4816 99.6831 21.3293 100.179 21.3483C100.393 21.3475 100.606 21.3708 100.815 21.4176V23.1559C100.545 23.0733 100.263 23.0353 99.9805 23.0436C99.7105 23.0326 99.4413 23.0802 99.1915 23.1831C98.9417 23.286 98.717 23.4417 98.5331 23.6396C98.3491 23.8375 98.2101 24.0729 98.1257 24.3295C98.0413 24.5862 98.0134 24.8581 98.044 25.1266V30.4967H96.1855L96.1856 21.443Z" fill="black"/>
<path d="M109.384 27.8369C109.134 29.4805 107.533 30.6084 105.485 30.6084C102.852 30.6084 101.217 28.8437 101.217 26.0127C101.217 23.1729 102.86 21.3311 105.407 21.3311C107.912 21.3311 109.487 23.0518 109.487 25.7969V26.4336H103.093V26.5459C103.063 26.8791 103.105 27.2148 103.215 27.5306C103.325 27.8464 103.501 28.1352 103.732 28.3778C103.962 28.6203 104.241 28.8111 104.551 28.9374C104.861 29.0637 105.194 29.1226 105.528 29.1103C105.967 29.1515 106.408 29.0498 106.785 28.8203C107.162 28.5909 107.454 28.246 107.619 27.8369L109.384 27.8369ZM103.102 25.1348H107.628C107.645 24.8352 107.599 24.5354 107.495 24.2541C107.39 23.9729 107.228 23.7164 107.02 23.5006C106.811 23.2849 106.56 23.1145 106.283 23.0003C106.005 22.8861 105.707 22.8305 105.407 22.8369C105.105 22.8351 104.805 22.8933 104.525 23.008C104.245 23.1227 103.99 23.2918 103.776 23.5054C103.561 23.7191 103.391 23.973 103.276 24.2527C103.16 24.5323 103.101 24.8321 103.102 25.1348V25.1348Z" fill="black"/>
<path d="M37.8271 8.73138C38.2168 8.70342 38.6077 8.76228 38.9718 8.90371C39.3359 9.04515 39.6641 9.26563 39.9327 9.54925C40.2013 9.83288 40.4036 10.1726 40.525 10.5438C40.6464 10.9151 40.6839 11.3087 40.6348 11.6962C40.6348 13.6025 39.6045 14.6982 37.8271 14.6982H35.6719V8.73138H37.8271ZM36.5986 13.8544H37.7236C38.002 13.871 38.2806 13.8254 38.5392 13.7208C38.7977 13.6161 39.0297 13.4552 39.2182 13.2496C39.4067 13.0441 39.5469 12.7991 39.6288 12.5324C39.7107 12.2658 39.7321 11.9843 39.6914 11.7084C39.7291 11.4335 39.7056 11.1538 39.6224 10.8891C39.5393 10.6244 39.3987 10.3814 39.2106 10.1775C39.0226 9.97358 38.7917 9.81378 38.5346 9.70954C38.2776 9.6053 38.0006 9.55922 37.7236 9.57459H36.5986V13.8544Z" fill="black"/>
<path d="M41.6819 12.4448C41.6536 12.1489 41.6875 11.8503 41.7813 11.5682C41.8751 11.2862 42.0269 11.0268 42.2268 10.8068C42.4268 10.5868 42.6705 10.4111 42.9423 10.2908C43.2142 10.1705 43.5082 10.1084 43.8055 10.1084C44.1027 10.1084 44.3967 10.1705 44.6686 10.2908C44.9404 10.4111 45.1841 10.5868 45.3841 10.8068C45.584 11.0268 45.7358 11.2862 45.8296 11.5682C45.9235 11.8503 45.9573 12.1489 45.929 12.4448C45.9578 12.741 45.9244 13.04 45.8308 13.3225C45.7372 13.605 45.5855 13.8648 45.3855 14.0853C45.1856 14.3057 44.9417 14.4818 44.6695 14.6023C44.3974 14.7229 44.1031 14.7851 43.8055 14.7851C43.5078 14.7851 43.2135 14.7229 42.9414 14.6023C42.6693 14.4818 42.4254 14.3057 42.2254 14.0853C42.0254 13.8648 41.8737 13.605 41.7801 13.3225C41.6865 13.04 41.6531 12.741 41.6819 12.4448ZM45.0149 12.4448C45.0149 11.4687 44.5764 10.8979 43.8069 10.8979C43.0345 10.8979 42.5999 11.4687 42.5999 12.4448C42.5999 13.4287 43.0345 13.9951 43.8069 13.9951C44.5765 13.9951 45.0149 13.4248 45.0149 12.4448H45.0149Z" fill="black"/>
<path d="M51.5742 14.6982H50.6523L49.7217 11.3818H49.6514L48.7246 14.6982H47.8115L46.5703 10.1953H47.4717L48.2783 13.6313H48.3447L49.2705 10.1953H50.1231L51.0488 13.6313H51.1191L51.9219 10.1953H52.8105L51.5742 14.6982Z" fill="black"/>
<path d="M53.8535 10.1949H54.709V10.9102H54.7754C54.888 10.6533 55.0781 10.4379 55.3189 10.2941C55.5598 10.1503 55.8395 10.0852 56.1191 10.1079C56.3382 10.0915 56.5582 10.1245 56.7628 10.2046C56.9674 10.2847 57.1514 10.4098 57.3011 10.5707C57.4508 10.7315 57.5623 10.924 57.6275 11.1338C57.6927 11.3436 57.7099 11.5654 57.6777 11.7827V14.6977H56.7891V12.0059C56.7891 11.2823 56.4746 10.9224 55.8174 10.9224C55.6686 10.9155 55.5201 10.9408 55.3821 10.9966C55.244 11.0525 55.1197 11.1375 55.0175 11.2459C54.9154 11.3543 54.8379 11.4834 54.7904 11.6246C54.7429 11.7657 54.7264 11.9154 54.7422 12.0635V14.6978H53.8535L53.8535 10.1949Z" fill="black"/>
<path d="M59.0938 8.4375H59.9824V14.6982H59.0938V8.4375Z" fill="black"/>
<path d="M61.219 12.4449C61.1907 12.1489 61.2246 11.8503 61.3185 11.5683C61.4123 11.2862 61.5641 11.0268 61.7641 10.8068C61.964 10.5869 62.2078 10.4111 62.4796 10.2908C62.7515 10.1705 63.0455 10.1084 63.3428 10.1084C63.6401 10.1084 63.9341 10.1705 64.206 10.2908C64.4778 10.4111 64.7215 10.5869 64.9215 10.8068C65.1215 11.0268 65.2733 11.2862 65.3671 11.5683C65.461 11.8503 65.4949 12.1489 65.4666 12.4449C65.4954 12.7411 65.4619 13.0401 65.3683 13.3226C65.2747 13.6051 65.123 13.8649 64.9229 14.0853C64.7229 14.3058 64.479 14.4819 64.2069 14.6024C63.9348 14.7229 63.6404 14.7852 63.3428 14.7852C63.0452 14.7852 62.7508 14.7229 62.4787 14.6024C62.2065 14.4819 61.9626 14.3058 61.7626 14.0853C61.5626 13.8649 61.4109 13.6051 61.3173 13.3226C61.2237 13.0401 61.1902 12.7411 61.219 12.4449ZM64.552 12.4449C64.552 11.4688 64.1135 10.898 63.344 10.898C62.5715 10.898 62.137 11.4688 62.137 12.4449C62.137 13.4288 62.5716 13.9952 63.344 13.9952C64.1135 13.9952 64.552 13.4248 64.552 12.4449H64.552Z" fill="black"/>
<path d="M66.4023 13.4248C66.4023 12.6142 67.0059 12.147 68.0771 12.0806L69.2969 12.0102V11.6216C69.2969 11.146 68.9824 10.8774 68.375 10.8774C67.8789 10.8774 67.5352 11.0596 67.4365 11.3779H66.5762C66.667 10.6045 67.3945 10.1084 68.416 10.1084C69.5449 10.1084 70.1816 10.6704 70.1816 11.6216V14.6982H69.3262V14.0654H69.2559C69.1131 14.2924 68.9127 14.4775 68.6751 14.6017C68.4375 14.7259 68.1712 14.7848 67.9033 14.7724C67.7143 14.7921 67.5232 14.7719 67.3425 14.7132C67.1617 14.6545 66.9953 14.5586 66.8538 14.4316C66.7124 14.3047 66.5992 14.1495 66.5214 13.9761C66.4437 13.8026 66.4031 13.6149 66.4023 13.4248ZM69.2969 13.04V12.6636L68.1973 12.7339C67.5771 12.7754 67.2959 12.9863 67.2959 13.3833C67.2959 13.7886 67.6474 14.0244 68.1309 14.0244C68.2725 14.0387 68.4156 14.0244 68.5516 13.9823C68.6876 13.9403 68.8138 13.8712 68.9226 13.7794C69.0313 13.6876 69.1205 13.5748 69.1849 13.4477C69.2492 13.3207 69.2873 13.1821 69.2969 13.04Z" fill="black"/>
<path d="M71.3496 12.4448C71.3496 11.022 72.0811 10.1206 73.2188 10.1206C73.5002 10.1077 73.7795 10.1751 74.024 10.315C74.2685 10.4548 74.4682 10.6615 74.5996 10.9106H74.666V8.4375H75.5547V14.6982H74.7031V13.9868H74.6328C74.4912 14.2343 74.2846 14.4383 74.0353 14.5768C73.7861 14.7153 73.5037 14.783 73.2188 14.7725C72.0732 14.7725 71.3496 13.8711 71.3496 12.4448ZM72.2676 12.4448C72.2676 13.3999 72.7178 13.9746 73.4707 13.9746C74.2197 13.9746 74.6826 13.3916 74.6826 12.4488C74.6826 11.5103 74.2149 10.919 73.4707 10.919C72.7227 10.919 72.2676 11.4976 72.2676 12.4448H72.2676Z" fill="black"/>
<path d="M79.2307 12.4448C79.2024 12.1489 79.2363 11.8503 79.3301 11.5682C79.424 11.2862 79.5757 11.0268 79.7757 10.8068C79.9756 10.5868 80.2193 10.4111 80.4912 10.2908C80.763 10.1705 81.057 10.1084 81.3543 10.1084C81.6516 10.1084 81.9455 10.1705 82.2174 10.2908C82.4892 10.4111 82.7329 10.5868 82.9329 10.8068C83.1328 11.0268 83.2846 11.2862 83.3784 11.5682C83.4723 11.8503 83.5061 12.1489 83.4778 12.4448C83.5067 12.741 83.4732 13.04 83.3796 13.3225C83.286 13.605 83.1344 13.8648 82.9344 14.0853C82.7344 14.3057 82.4905 14.4818 82.2184 14.6023C81.9462 14.7229 81.6519 14.7851 81.3543 14.7851C81.0567 14.7851 80.7623 14.7229 80.4902 14.6023C80.2181 14.4818 79.9742 14.3057 79.7742 14.0853C79.5742 13.8648 79.4225 13.605 79.3289 13.3225C79.2353 13.04 79.2019 12.741 79.2307 12.4448ZM82.5637 12.4448C82.5637 11.4687 82.1253 10.8979 81.3557 10.8979C80.5833 10.8979 80.1487 11.4687 80.1487 12.4448C80.1487 13.4287 80.5833 13.9951 81.3557 13.9951C82.1253 13.9951 82.5637 13.4248 82.5637 12.4448Z" fill="black"/>
<path d="M84.6699 10.1949H85.5254V10.9102H85.5918C85.7045 10.6533 85.8945 10.4379 86.1353 10.2941C86.3762 10.1503 86.6559 10.0852 86.9356 10.1079C87.1547 10.0915 87.3746 10.1245 87.5792 10.2046C87.7838 10.2847 87.9678 10.4098 88.1175 10.5707C88.2672 10.7315 88.3787 10.924 88.4439 11.1338C88.5091 11.3436 88.5263 11.5654 88.4941 11.7827V14.6977H87.6055V12.0059C87.6055 11.2823 87.291 10.9224 86.6338 10.9224C86.485 10.9155 86.3365 10.9408 86.1985 10.9966C86.0604 11.0525 85.9361 11.1375 85.8339 11.2459C85.7318 11.3543 85.6543 11.4834 85.6068 11.6246C85.5593 11.7657 85.5428 11.9154 85.5586 12.0635V14.6978H84.6699V10.1949Z" fill="black"/>
<path d="M93.5166 9.07422V10.2158H94.4922V10.9644H93.5166V13.2798C93.5166 13.7515 93.7109 13.958 94.1533 13.958C94.2666 13.9576 94.3797 13.9508 94.4922 13.9375V14.6777C94.3326 14.7063 94.1709 14.7215 94.0088 14.7231C93.0205 14.7231 92.627 14.3755 92.627 13.5073V10.9643H91.9121V10.2158H92.627V9.07422H93.5166Z" fill="black"/>
<path d="M95.7051 8.4375H96.5859V10.9189H96.6562C96.7744 10.6596 96.9696 10.443 97.2153 10.2987C97.461 10.1543 97.7452 10.0893 98.0292 10.1123C98.2472 10.1004 98.4651 10.1368 98.6674 10.2189C98.8697 10.3009 99.0513 10.4266 99.1995 10.5869C99.3476 10.7473 99.4585 10.9383 99.5243 11.1465C99.5901 11.3546 99.6091 11.5747 99.58 11.791V14.6982H98.6905V12.0102C98.6905 11.291 98.3555 10.9267 97.7276 10.9267C97.5748 10.9142 97.4212 10.9352 97.2774 10.9883C97.1337 11.0413 97.0032 11.1252 96.8952 11.2339C96.7872 11.3426 96.7043 11.4737 96.6522 11.6178C96.6002 11.7619 96.5802 11.9157 96.5938 12.0683V14.6982H95.7051L95.7051 8.4375Z" fill="black"/>
<path d="M104.761 13.4825C104.641 13.894 104.379 14.25 104.022 14.4882C103.666 14.7263 103.237 14.8315 102.81 14.7852C102.514 14.7931 102.219 14.7362 101.946 14.6187C101.674 14.5012 101.43 14.3258 101.232 14.1046C101.034 13.8835 100.887 13.6219 100.8 13.3381C100.713 13.0543 100.69 12.755 100.73 12.461C100.691 12.1661 100.715 11.8662 100.801 11.5815C100.888 11.2969 101.035 11.0341 101.231 10.811C101.428 10.5879 101.671 10.4098 101.943 10.2886C102.214 10.1674 102.509 10.1059 102.806 10.1085C104.059 10.1085 104.815 10.9645 104.815 12.3785V12.6886H101.635V12.7384C101.621 12.9036 101.642 13.0699 101.696 13.2267C101.751 13.3834 101.837 13.5271 101.95 13.6486C102.063 13.7701 102.2 13.8666 102.352 13.932C102.504 13.9974 102.669 14.0302 102.835 14.0284C103.047 14.0539 103.263 14.0156 103.453 13.9184C103.644 13.8212 103.802 13.6694 103.906 13.4825L104.761 13.4825ZM101.635 12.0313H103.91C103.921 11.8802 103.9 11.7284 103.85 11.5857C103.799 11.443 103.718 11.3125 103.614 11.2026C103.51 11.0928 103.383 11.006 103.243 10.9478C103.103 10.8896 102.953 10.8613 102.801 10.8648C102.648 10.8629 102.495 10.8917 102.353 10.9497C102.21 11.0076 102.081 11.0935 101.972 11.2022C101.864 11.3109 101.778 11.4403 101.72 11.5827C101.662 11.7251 101.633 11.8776 101.635 12.0313H101.635Z" fill="black"/>
</g>
<defs>
<clipPath id="clip0_1_136">
<rect width="120" height="40" fill="white"/>
</clipPath>
</defs>
</svg>
