<svg width="48" height="48" viewBox="0 0 48 48" fill="none" xmlns="http://www.w3.org/2000/svg">
<path d="M46 31C42.6667 34.1667 34.1 40.5 26.5 40.5C17 40.5 16 33 16 32C16 31 16 19.5 28.5 19.5C34 19.5 34 23 34 24C34 25 33 29 22 29C11 29 6 19 6 8M6 8C5.66667 9.83333 4.5 13 2.5 15.5M6 8C6.5 9.66667 8.2 13.4 11 15" stroke="url(#paint0_linear_1_338)" stroke-width="1.5" stroke-linecap="round"/>
<circle cx="6" cy="8" r="0.75" fill="#DD57C3"/>
<defs>
<linearGradient id="paint0_linear_1_338" x1="46" y1="24" x2="6" y2="24" gradientUnits="userSpaceOnUse">
<stop stop-color="#E72F08"/>
<stop offset="1" stop-color="#DD57C3"/>
</linearGradient>
</defs>
</svg>
