<svg width="112" height="112" viewBox="0 0 112 112" fill="none" xmlns="http://www.w3.org/2000/svg">
<g clip-path="url(#clip0_1_9)">
<path d="M96 8C74 8 53 16.5 53 38.5C53 63.1641 80 65.5 82 65.5C84 65.5 96 63.5 96 50.5C96 49 94 37.5 83 37.5C72 37.5 74 56.5 74 61C74 70 74 102.5 61.5 98.5C49 94.5 34.5 95.5 34.5 95.5M96 8C92.3333 7.33333 86 5 81 1M96 8C92.6667 9 85.2 12.4 82 18" stroke="url(#paint0_linear_1_9)" stroke-width="3" stroke-linecap="round"/>
<circle cx="96" cy="8" r="1.5" transform="rotate(90 96 8)" fill="#DD57C3"/>
</g>
<defs>
<linearGradient id="paint0_linear_1_9" x1="64" y1="92" x2="64" y2="12" gradientUnits="userSpaceOnUse">
<stop stop-color="#E72F08"/>
<stop offset="1" stop-color="#DD57C3"/>
</linearGradient>
<clipPath id="clip0_1_9">
<rect width="112" height="112" fill="white"/>
</clipPath>
</defs>
</svg>
