<svg width="20" height="20" viewBox="0 0 20 20" fill="none" xmlns="http://www.w3.org/2000/svg">
<path d="M20 7.57875C20 7.22335 19.6396 6.98141 19.3107 7.11598L11.144 10.4569C10.9561 10.5338 10.8333 10.7166 10.8333 10.9197V18.0059C10.8333 18.3613 11.1937 18.6032 11.5226 18.4687L19.6893 15.1277C19.8772 15.0509 20 14.868 20 14.665V7.57875Z" fill="black"/>
<path d="M0 7.57875C0 7.22335 0.360375 6.98141 0.689316 7.11598L8.85598 10.4569C9.0439 10.5338 9.16667 10.7166 9.16667 10.9197V18.0059C9.16667 18.3613 8.80629 18.6032 8.47735 18.4687L0.310683 15.1277C0.122771 15.0509 0 14.868 0 14.665V7.57875Z" fill="black"/>
<path d="M5.5 5.96879V1.98408C5.5 1.88633 5.64007 1.83427 5.70956 1.90303C6.17417 2.36277 7.45652 3.33366 10.0007 3.33366C12.5442 3.33366 13.8258 2.36318 14.2903 1.90332C14.3598 1.83453 14.5 1.88659 14.5 1.98437V5.96882C14.5 5.98933 14.4944 6.00844 14.4818 6.02463C14.3223 6.22998 13.0958 7.66699 10.0007 7.66699C6.90555 7.66699 5.67792 6.23004 5.51825 6.02465C5.50565 6.00844 5.5 5.98932 5.5 5.96879Z" fill="black"/>
</svg>
