<svg width="20" height="20" viewBox="0 0 20 20" fill="none" xmlns="http://www.w3.org/2000/svg">
<g clip-path="url(#clip0_1_66)">
<path d="M9.99985 5.62502C11.5526 5.62502 12.8124 4.36525 12.8124 2.81252C12.8124 1.25978 11.5545 0 9.99985 0C8.44516 0 7.15219 1.25978 7.15219 2.81252C7.15219 4.36525 8.44907 5.62502 9.99985 5.62502ZM17.4647 4.32814C16.9221 3.65861 15.9389 3.5547 15.2674 4.09744L13.2655 5.71877C11.4233 7.21056 8.57407 7.21056 6.73032 5.71877L4.73305 4.09767C4.06313 3.5547 3.07798 3.659 2.53579 4.32814C1.99282 5.00002 2.09594 5.98439 2.76665 6.52736L4.76626 8.14728C5.22446 8.51822 5.72837 8.81759 6.24985 9.08166L6.21469 18.75C6.21469 19.4383 6.77641 20 7.46469 20H8.05454C8.74282 20 9.30454 19.4383 9.30454 18.75V14.375H10.5545V18.75C10.5545 19.4383 11.1163 20 11.8045 20H12.3944C13.0827 20 13.6444 19.4383 13.6444 18.75L13.6444 9.08205C14.1659 8.81814 14.6698 8.51877 15.1276 8.14806L17.1276 6.52814C17.9022 5.98439 17.9725 5.00002 17.4647 4.32814Z" fill="black"/>
</g>
<defs>
<clipPath id="clip0_1_66">
<rect width="20" height="20" fill="white"/>
</clipPath>
</defs>
</svg>
