<svg width="20" height="20" viewBox="0 0 20 20" fill="none" xmlns="http://www.w3.org/2000/svg">
<g clip-path="url(#clip0_1_68)">
<path fill-rule="evenodd" clip-rule="evenodd" d="M10.0007 19.1663C15.0633 19.1663 19.1673 15.0623 19.1673 9.99968C19.1673 4.93706 15.0633 0.833008 10.0007 0.833008C4.93804 0.833008 0.833984 4.93706 0.833984 9.99968C0.833984 15.0623 4.93804 19.1663 10.0007 19.1663ZM11 5C11 4.44772 10.5523 4 10 4C9.44771 4 9 4.44772 9 5V9C9 10.1046 9.89543 11 11 11H13.3333C13.8856 11 14.3333 10.5523 14.3333 10C14.3333 9.44772 13.8856 9 13.3333 9H11V5Z" fill="black"/>
</g>
<defs>
<clipPath id="clip0_1_68">
<rect width="20" height="20" fill="white"/>
</clipPath>
</defs>
</svg>
