<svg width="32" height="32" viewBox="0 0 32 32" fill="none" xmlns="http://www.w3.org/2000/svg">
<path d="M17.1429 10.2857L8.29289 19.1357C8.14838 19.2802 8.07612 19.3525 8.03806 19.4443C8 19.5362 8 19.6384 8 19.8428V23C8 23.4714 8 23.7071 8.14645 23.8536C8.29289 24 8.5286 24 9 24H12.1572C12.3616 24 12.4638 24 12.5557 23.9619C12.6475 23.9239 12.7198 23.8516 12.8643 23.7071L21.7143 14.8571M17.1429 10.2857L18.0144 9.41421C18.681 8.74755 19.0144 8.41421 19.4286 8.41421C19.8428 8.41421 20.1761 8.74755 20.8428 9.41421L22.5858 11.1572C23.2525 11.8239 23.5858 12.1572 23.5858 12.5714C23.5858 12.9856 23.2525 13.319 22.5858 13.9856L21.7143 14.8571M17.1429 10.2857L21.7143 14.8571M24 24H19.4286" stroke="url(#paint0_linear_1_3145)" stroke-width="2" stroke-linecap="round"/>
<defs>
<linearGradient id="paint0_linear_1_3145" x1="8" y1="16" x2="24" y2="16" gradientUnits="userSpaceOnUse">
<stop stop-color="#FF8DA8"/>
<stop offset="1" stop-color="#FA6523"/>
</linearGradient>
</defs>
</svg>
