<svg width="24" height="24" viewBox="0 0 24 24" fill="none" xmlns="http://www.w3.org/2000/svg">
<path d="M12.8228 9.82051L11.4664 8.46402C11.2962 8.29388 11.029 8.26905 10.8305 8.40492L3.83305 13.1926C3.57467 13.3694 3.54046 13.7375 3.76184 13.9588L10.3344 20.5314C10.5558 20.7528 10.9239 20.7186 11.1007 20.4602L15.8884 13.4628C16.0242 13.2642 15.9994 12.9971 15.8293 12.8269L14.4728 11.4704M12.8228 9.82051L14.4728 11.4704M12.8228 9.82051L18.2558 4.38752C18.4746 4.16872 18.7714 4.04581 19.0808 4.04581V4.04581C19.7251 4.04581 20.2475 4.56814 20.2475 5.21247V5.21247C20.2475 5.52189 20.1246 5.81864 19.9058 6.03743L14.4728 11.4704" stroke="#111111" stroke-width="1.5"/>
<path d="M8.78513 14.1455C9.00984 13.985 9.06188 13.6727 8.90138 13.448C8.74087 13.2233 8.4286 13.1713 8.20389 13.3318L8.78513 14.1455ZM10.9638 16.0917C11.1243 15.867 11.0722 15.5547 10.8475 15.3942C10.6228 15.2337 10.3105 15.2857 10.15 15.5104L10.9638 16.0917ZM5.89778 16.2079L8.78513 14.1455L8.20389 13.3318L5.31654 15.3942L5.89778 16.2079ZM8.90138 18.979L10.9638 16.0917L10.15 15.5104L8.08764 18.3978L8.90138 18.979Z" fill="#111111"/>
</svg>
