<svg width="32" height="32" viewBox="0 0 32 32" fill="none" xmlns="http://www.w3.org/2000/svg">
<path d="M11 13H21V20.8C21 21.9201 21 22.4802 20.782 22.908C20.5903 23.2843 20.2843 23.5903 19.908 23.782C19.4802 24 18.9201 24 17.8 24H14.2C13.0799 24 12.5198 24 12.092 23.782C11.7157 23.5903 11.4097 23.2843 11.218 22.908C11 22.4802 11 21.9201 11 20.8V13Z" stroke="#999999" stroke-width="1.5"/>
<path d="M9.5 10H14M22.5 10H18M14 10H18M14 10V9C14 8.44772 14.4477 8 15 8H17C17.5523 8 18 8.44772 18 9V10" stroke="#999999" stroke-width="1.5" stroke-linecap="round"/>
<path d="M14.5 16V21M17.5 16V21" stroke="#999999" stroke-width="1.5" stroke-linecap="round"/>
</svg>
