<svg width="48" height="48" viewBox="0 0 48 48" fill="none" xmlns="http://www.w3.org/2000/svg">
<path d="M24 34.5C18.201 34.5 13.5 29.799 13.5 24C13.5 18.201 18.201 13.5 24 13.5C29.799 13.5 34.5 18.201 34.5 24C34.5 29.799 29.799 34.5 24 34.5Z" stroke="white" stroke-width="1.5"/>
<path d="M24 20C23.4477 20 23 19.5523 23 19C23 18.4477 23.4477 18 24 18C24.5523 18 25 18.4477 25 19C25 19.5523 24.5523 20 24 20Z" fill="white"/>
<path d="M24 28V23H23M24 28H23M24 28H25" stroke="white" stroke-width="1.5" stroke-linecap="round"/>
</svg>
