<svg width="24" height="24" viewBox="0 0 24 24" fill="none" xmlns="http://www.w3.org/2000/svg">
<path d="M17 9H7V4.6C7 4.03995 7 3.75992 7.10899 3.54601C7.20487 3.35785 7.35785 3.20487 7.54601 3.10899C7.75992 3 8.03995 3 8.6 3H15.4C15.9601 3 16.2401 3 16.454 3.10899C16.6422 3.20487 16.7951 3.35785 16.891 3.54601C17 3.75992 17 4.03995 17 4.6V9Z" stroke="#111111" stroke-width="1.5" stroke-linecap="round"/>
<path d="M15.4 21H8.6C8.03995 21 7.75992 21 7.54601 20.891C7.35785 20.7951 7.20487 20.6422 7.10899 20.454C7 20.2401 7 19.9601 7 19.4V15.6C7 15.0399 7 14.7599 7.10899 14.546C7.20487 14.3578 7.35785 14.2049 7.54601 14.109C7.75992 14 8.03995 14 8.6 14H15.4C15.9601 14 16.2401 14 16.454 14.109C16.6422 14.2049 16.7951 14.3578 16.891 14.546C17 14.7599 17 15.0399 17 15.6V19.4C17 19.9601 17 20.2401 16.891 20.454C16.7951 20.6422 16.6422 20.7951 16.454 20.891C16.2401 21 15.9601 21 15.4 21Z" stroke="#111111" stroke-width="1.5" stroke-linecap="round"/>
<path d="M16 11.5H18" stroke="#111111" stroke-width="1.5" stroke-linecap="round"/>
<path d="M7 18H4.6C4.03995 18 3.75992 18 3.54601 17.891C3.35785 17.7951 3.20487 17.6422 3.10899 17.454C3 17.2401 3 16.9601 3 16.4V10.6C3 10.0399 3 9.75992 3.10899 9.54601C3.20487 9.35785 3.35785 9.20487 3.54601 9.10899C3.75992 9 4.03995 9 4.6 9H19.4C19.9601 9 20.2401 9 20.454 9.10899C20.6422 9.20487 20.7951 9.35785 20.891 9.54601C21 9.75992 21 10.0399 21 10.6V16.4C21 16.9601 21 17.2401 20.891 17.454C20.7951 17.6422 20.6422 17.7951 20.454 17.891C20.2401 18 19.9601 18 19.4 18H17" stroke="#111111" stroke-width="1.5" stroke-linecap="round"/>
</svg>
