<svg width="24" height="24" viewBox="0 0 24 24" fill="none" xmlns="http://www.w3.org/2000/svg">
<path d="M15.8 20H8.2C7.0799 20 6.51984 20 6.09202 19.782C5.71569 19.5903 5.40973 19.2843 5.21799 18.908C5 18.4802 5 17.9201 5 16.8V7.2C5 6.0799 5 5.51984 5.21799 5.09202C5.40973 4.71569 5.71569 4.40973 6.09202 4.21799C6.51984 4 7.0799 4 8.2 4H13.6745C14.1637 4 14.4083 4 14.6385 4.05526C14.8425 4.10425 15.0376 4.18506 15.2166 4.29472C15.4184 4.4184 15.5914 4.59135 15.9373 4.93726L18.0627 7.06274C18.4086 7.40865 18.5816 7.5816 18.7053 7.78343C18.8149 7.96237 18.8957 8.15746 18.9447 8.36154C19 8.59171 19 8.8363 19 9.32548V16.8C19 17.9201 19 18.4802 18.782 18.908C18.5903 19.2843 18.2843 19.5903 17.908 19.782C17.4802 20 16.9201 20 15.8 20Z" stroke="#111111" stroke-width="1.5" stroke-linecap="round"/>
<path d="M19 9H17.2C16.0799 9 15.5198 9 15.092 8.78201C14.7157 8.59027 14.4097 8.28431 14.218 7.90798C14 7.48016 14 6.92011 14 5.8V4" stroke="#111111" stroke-width="1.5"/>
</svg>
