<svg width="24" height="24" viewBox="0 0 24 24" fill="none" xmlns="http://www.w3.org/2000/svg">
<path d="M6.11482 13.2626C5.851 11.824 6.04443 10.3389 6.66795 9.01586C7.29146 7.69282 8.31374 6.59832 9.59121 5.88607C10.8687 5.17383 12.3371 4.87962 13.7904 5.04477C15.2436 5.20992 16.6087 5.82612 17.6937 6.80685C18.7788 7.78758 19.5294 9.08355 19.8402 10.5128C20.1509 11.942 20.0062 13.4326 19.4263 14.7754C18.8464 16.1181 17.8605 17.2455 16.607 17.9991C15.3535 18.7528 13.8955 19.0949 12.4376 18.9774" stroke="black" stroke-width="1.5" stroke-linecap="round"/>
<path d="M3 11L5.64645 13.6464C5.84171 13.8417 6.15829 13.8417 6.35355 13.6464L7.5 12.5L9 11" stroke="black" stroke-width="1.5" stroke-linecap="round"/>
</svg>
