<svg width="24" height="24" viewBox="0 0 24 24" fill="none" xmlns="http://www.w3.org/2000/svg">
<path d="M17.5 8C16.1193 8 15 6.88071 15 5.5C15 4.11929 16.1193 3 17.5 3C18.8807 3 20 4.11929 20 5.5C20 6.88071 18.8807 8 17.5 8Z" stroke="#111111" stroke-width="1.5"/>
<path d="M17.5 21C16.1193 21 15 19.8807 15 18.5C15 17.1193 16.1193 16 17.5 16C18.8807 16 20 17.1193 20 18.5C20 19.8807 18.8807 21 17.5 21Z" stroke="#111111" stroke-width="1.5"/>
<path d="M6.5 14.5C5.11929 14.5 4 13.3807 4 12C4 10.6193 5.11929 9.5 6.5 9.5C7.88071 9.5 9 10.6193 9 12C9 13.3807 7.88071 14.5 6.5 14.5Z" stroke="#111111" stroke-width="1.5"/>
<path d="M15.5 6.68188L8.64771 10.731M15.5 17.3182L8.64771 13.2691" stroke="#111111" stroke-width="1.5"/>
</svg>
