<svg width="32" height="32" viewBox="0 0 32 32" fill="none" xmlns="http://www.w3.org/2000/svg">
<path d="M8.20508 11.5003L9.0711 12.0003V12.0003L8.20508 11.5003ZM8.20577 20.5001L9.0718 20.0001L8.20577 20.5001ZM23.7933 20.5003L24.6593 21.0003L23.7933 20.5003ZM23.7942 11.5001L24.6603 11.0001V11.0001L23.7942 11.5001ZM23.7166 8.14106L24.6052 8.5999L23.7166 8.14106ZM23.5455 6.66861L24.1747 5.8914L23.5455 6.66861ZM27.8556 14.1327L26.8676 14.2871L27.8556 14.1327ZM27.8555 17.8678L26.8675 17.7134L27.8555 17.8678ZM23.5446 25.3322L22.9154 24.5549L23.5446 25.3322ZM23.7158 23.8596L24.6043 23.4007L23.7158 23.8596ZM11.6899 27.2027L12.0492 26.2695L11.6899 27.2027ZM13.0507 26.6143L13.8927 27.1537L13.0507 26.6143ZM8.45462 25.3316L9.08386 24.5543L8.45462 25.3316ZM5.33454 18.7534L5.28793 19.7523L5.33454 18.7534ZM5.33431 13.2471L5.38105 14.246L5.33431 13.2471ZM4.1444 14.1328L3.15639 13.9785L4.1444 14.1328ZM8.45395 6.6691L7.82466 5.89192L8.45395 6.6691ZM8.28276 8.1414L9.1713 7.68261L8.28276 8.1414ZM18.9493 26.6143L18.1073 27.1537L18.9493 26.6143ZM20.3101 27.2027L19.9508 26.2695L20.3101 27.2027ZM13.051 5.38545L12.209 5.92497L13.051 5.38545ZM11.6903 4.7972L11.331 3.86396L11.6903 4.7972ZM12.209 5.92497C13.0072 7.1706 14.4064 7.99968 16 7.99968V5.99968C15.1163 5.99968 14.3389 5.54195 13.8929 4.84593L12.209 5.92497ZM9.08324 7.44627C9.96936 6.72876 10.9686 6.14655 12.0495 5.73045L11.331 3.86396C10.0519 4.35635 8.87092 5.04475 7.82466 5.89192L9.08324 7.44627ZM9.0711 12.0003C9.86732 10.6212 9.84955 8.99617 9.1713 7.68261L7.39422 8.6002C7.7732 9.33418 7.78058 10.2356 7.33905 11.0003L9.0711 12.0003ZM5.38105 14.246C6.85808 14.1769 8.27472 13.3797 9.0711 12.0003L7.33905 11.0003C6.89744 11.7652 6.11289 12.2095 5.28757 12.2482L5.38105 14.246ZM5 16C5 15.4168 5.04531 14.8448 5.13242 14.2872L3.15639 13.9785C3.05338 14.6378 3 15.313 3 16H5ZM5.13247 17.7132C5.04533 17.1555 5 16.5834 5 16H3C3 16.6872 3.0534 17.3625 3.15645 18.022L5.13247 17.7132ZM9.0718 20.0001C8.2753 18.6206 6.85839 17.8234 5.38115 17.7545L5.28793 19.7523C6.11338 19.7908 6.89807 20.2351 7.33975 21.0001L9.0718 20.0001ZM9.17193 24.318C9.85024 23.0044 9.86804 21.3793 9.0718 20.0001L7.33975 21.0001C7.78128 21.7649 7.77389 22.6663 7.39487 23.4003L9.17193 24.318ZM12.0492 26.2695C10.9686 25.8535 9.96972 25.2715 9.08386 24.5543L7.82539 26.1088C8.87135 26.9556 10.052 27.6437 11.3306 28.136L12.0492 26.2695ZM16 23.9997C14.4062 23.9997 13.0068 24.829 12.2086 26.0749L13.8927 27.1537C14.3387 26.4575 15.1162 25.9997 16 25.9997V23.9997ZM19.7914 26.0749C18.9932 24.829 17.5938 23.9997 16 23.9997V25.9997C16.8838 25.9997 17.6613 26.4575 18.1073 27.1537L19.7914 26.0749ZM22.9154 24.5549C22.0297 25.2718 21.0311 25.8536 19.9508 26.2695L20.6694 28.136C21.9477 27.6438 23.128 26.9559 24.1738 26.1095L22.9154 24.5549ZM22.9273 20.0003C22.1309 21.3796 22.1488 23.0048 22.8273 24.3185L24.6043 23.4007C24.2252 22.6666 24.2177 21.7651 24.6593 21.0003L22.9273 20.0003ZM26.6187 17.7546C25.1412 17.8232 23.7239 18.6205 22.9273 20.0003L24.6593 21.0003C25.1011 20.2352 25.886 19.7908 26.7116 19.7524L26.6187 17.7546ZM27 16C27 16.5835 26.9547 17.1556 26.8675 17.7134L28.8435 18.0222C28.9466 17.3627 29 16.6873 29 16H27ZM26.8676 14.2871C26.9547 14.8447 27 15.4167 27 16H29C29 15.313 28.9466 14.6377 28.8436 13.9783L26.8676 14.2871ZM22.9282 12.0001C23.7247 13.3797 25.1416 14.1769 26.6189 14.2458L26.7121 12.248C25.8866 12.2095 25.1019 11.7652 24.6603 11.0001L22.9282 12.0001ZM22.8281 7.68221C22.1498 8.99581 22.1319 10.621 22.9282 12.0001L24.6603 11.0001C24.2187 10.2354 24.2261 9.33391 24.6052 8.5999L22.8281 7.68221ZM19.9505 5.73045C21.0312 6.14646 22.0302 6.72852 22.9162 7.44583L24.1747 5.8914C23.1286 5.04447 21.9478 4.35625 20.669 3.86396L19.9505 5.73045ZM16 7.99968C17.5936 7.99968 18.9928 7.1706 19.791 5.92497L18.1071 4.84593C17.6611 5.54195 16.8837 5.99968 16 5.99968V7.99968ZM20.669 3.86396C19.5209 3.42201 18.5333 4.18081 18.1071 4.84593L19.791 5.92497C19.8195 5.88049 19.8536 5.84031 19.8893 5.80772C19.9252 5.77495 19.9566 5.75533 19.9783 5.745C19.9995 5.73487 20.0051 5.73648 19.9952 5.73721C19.9825 5.73815 19.965 5.73605 19.9505 5.73045L20.669 3.86396ZM24.6052 8.5999C24.9677 7.89785 25.1297 6.66458 24.1747 5.8914L22.9162 7.44583C22.9042 7.43611 22.8938 7.42217 22.8884 7.41096C22.8841 7.40217 22.8884 7.40638 22.8902 7.42992C22.8921 7.45393 22.8909 7.49101 22.8804 7.53848C22.8701 7.58568 22.8524 7.63527 22.8281 7.68221L24.6052 8.5999ZM28.8436 13.9783C28.6535 12.7619 27.5018 12.2849 26.7121 12.248L26.6189 14.2458C26.6717 14.2483 26.7236 14.2578 26.7697 14.2724C26.8161 14.2871 26.8489 14.3046 26.8687 14.3183C26.8881 14.3316 26.8896 14.3373 26.884 14.3291C26.8769 14.3186 26.87 14.3024 26.8676 14.2871L28.8436 13.9783ZM26.7116 19.7524C27.5014 19.7157 28.6534 19.2388 28.8435 18.0222L26.8675 17.7134C26.8699 17.698 26.8768 17.6818 26.8839 17.6713C26.8895 17.6631 26.8881 17.6688 26.8687 17.6822C26.8488 17.6958 26.8161 17.7133 26.7696 17.728C26.7235 17.7427 26.6716 17.7521 26.6187 17.7546L26.7116 19.7524ZM24.1738 26.1095C25.129 25.3363 24.9669 24.1028 24.6043 23.4007L22.8273 24.3185C22.8516 24.3654 22.8693 24.415 22.8797 24.4622C22.8901 24.5097 22.8913 24.5468 22.8894 24.5708C22.8876 24.5944 22.8834 24.5986 22.8876 24.5898C22.893 24.5786 22.9034 24.5646 22.9154 24.5549L24.1738 26.1095ZM11.3306 28.136C12.4788 28.578 13.4666 27.819 13.8927 27.1537L12.2086 26.0749C12.1801 26.1194 12.1461 26.1596 12.1104 26.1922C12.0745 26.225 12.043 26.2446 12.0214 26.255C12.0001 26.2651 11.9945 26.2635 12.0045 26.2627C12.0171 26.2618 12.0346 26.2639 12.0492 26.2695L11.3306 28.136ZM7.39487 23.4003C7.03234 24.1024 6.87041 25.3356 7.82539 26.1088L9.08386 24.5543C9.09585 24.564 9.10627 24.578 9.11168 24.5892C9.11592 24.598 9.1117 24.5938 9.10984 24.5702C9.10794 24.5462 9.1092 24.5091 9.11962 24.4617C9.12997 24.4145 9.1477 24.3649 9.17193 24.318L7.39487 23.4003ZM3.15645 18.022C3.34654 19.2384 4.49826 19.7154 5.28793 19.7523L5.38115 17.7545C5.32831 17.752 5.27642 17.7425 5.23029 17.7279C5.1839 17.7131 5.15113 17.6957 5.13132 17.682C5.1119 17.6687 5.11047 17.663 5.11606 17.6712C5.12317 17.6817 5.13007 17.6979 5.13247 17.7132L3.15645 18.022ZM5.28757 12.2482C4.49795 12.2851 3.34642 12.7622 3.15639 13.9785L5.13242 14.2872C5.13002 14.3026 5.12311 14.3188 5.11601 14.3292C5.11042 14.3375 5.11185 14.3318 5.13127 14.3184C5.15107 14.3048 5.18383 14.2873 5.23021 14.2726C5.27633 14.2579 5.32821 14.2484 5.38105 14.246L5.28757 12.2482ZM7.82466 5.89192C6.86982 6.66507 7.03173 7.89817 7.39422 8.6002L9.1713 7.68261C9.14707 7.63568 9.12935 7.58609 9.119 7.5389C9.10858 7.49144 9.10732 7.45436 9.10922 7.43036C9.11108 7.40683 9.1153 7.40262 9.11106 7.41141C9.10565 7.42261 9.09523 7.43655 9.08324 7.44627L7.82466 5.89192ZM18.1073 27.1537C18.5334 27.819 19.5212 28.578 20.6694 28.136L19.9508 26.2695C19.9654 26.2639 19.9829 26.2618 19.9955 26.2627C20.0055 26.2635 19.9999 26.2651 19.9786 26.255C19.957 26.2446 19.9255 26.225 19.8896 26.1922C19.8539 26.1596 19.8199 26.1194 19.7914 26.0749L18.1073 27.1537ZM13.8929 4.84593C13.4667 4.18081 12.4791 3.42201 11.331 3.86396L12.0495 5.73045C12.035 5.73605 12.0175 5.73815 12.0048 5.73721C11.9949 5.73648 12.0005 5.73487 12.0217 5.745C12.0434 5.75533 12.0748 5.77495 12.1107 5.80772C12.1464 5.84031 12.1805 5.88049 12.209 5.92497L13.8929 4.84593Z" fill="#111111"/>
<path d="M16 19C14.3431 19 13 17.6569 13 16C13 14.3431 14.3431 13 16 13C17.6569 13 19 14.3431 19 16C19 17.6569 17.6569 19 16 19Z" stroke="#111111" stroke-width="2"/>
</svg>
