<svg width="18" height="18" viewBox="0 0 18 18" fill="none" xmlns="http://www.w3.org/2000/svg">
<path fill-rule="evenodd" clip-rule="evenodd" d="M0.25 2C0.25 1.0335 1.0335 0.25 2 0.25H16C16.9665 0.25 17.75 1.0335 17.75 2V16C17.75 16.9665 16.9665 17.75 16 17.75H2C1.0335 17.75 0.25 16.9665 0.25 16V2ZM2 1.75C1.86193 1.75 1.75 1.86193 1.75 2V16C1.75 16.1381 1.86193 16.25 2 16.25H16C16.1381 16.25 16.25 16.1381 16.25 16V2C16.25 1.86193 16.1381 1.75 16 1.75H2ZM7.30366 9.34705L4.15479 12.3523C4.05593 12.4466 4 12.5773 4 12.714V13.5C4 13.7761 4.22386 14 4.5 14H13.5C13.7761 14 14 13.7761 14 13.5V12.7071C14 12.5745 13.9473 12.4473 13.8536 12.3535L12.3536 10.8535C12.1583 10.6583 11.8417 10.6583 11.6464 10.8535L10.5 12L8.01241 9.36549C7.82211 9.16395 7.50418 9.15568 7.30366 9.34705ZM13 5.5C13 6.32843 12.3284 7 11.5 7C10.6716 7 10 6.32843 10 5.5C10 4.67157 10.6716 4 11.5 4C12.3284 4 13 4.67157 13 5.5Z" fill="#111111"/>
<path fill-rule="evenodd" clip-rule="evenodd" d="M0.25 2C0.25 1.0335 1.0335 0.25 2 0.25H16C16.9665 0.25 17.75 1.0335 17.75 2V16C17.75 16.9665 16.9665 17.75 16 17.75H2C1.0335 17.75 0.25 16.9665 0.25 16V2ZM2 1.75C1.86193 1.75 1.75 1.86193 1.75 2V16C1.75 16.1381 1.86193 16.25 2 16.25H16C16.1381 16.25 16.25 16.1381 16.25 16V2C16.25 1.86193 16.1381 1.75 16 1.75H2ZM7.30366 9.34705L4.15479 12.3523C4.05593 12.4466 4 12.5773 4 12.714V13.5C4 13.7761 4.22386 14 4.5 14H13.5C13.7761 14 14 13.7761 14 13.5V12.7071C14 12.5745 13.9473 12.4473 13.8536 12.3535L12.3536 10.8535C12.1583 10.6583 11.8417 10.6583 11.6464 10.8535L10.5 12L8.01241 9.36549C7.82211 9.16395 7.50418 9.15568 7.30366 9.34705ZM13 5.5C13 6.32843 12.3284 7 11.5 7C10.6716 7 10 6.32843 10 5.5C10 4.67157 10.6716 4 11.5 4C12.3284 4 13 4.67157 13 5.5Z" fill="url(#paint0_linear_1_2807)"/>
<defs>
<linearGradient id="paint0_linear_1_2807" x1="17.75" y1="9" x2="8.96712" y2="17.7499" gradientUnits="userSpaceOnUse">
<stop stop-color="#E72F08"/>
<stop offset="1" stop-color="#DD57C3"/>
</linearGradient>
</defs>
</svg>
